<?xml version="1.0" encoding="UTF-8" standalone="no"?>
<!-- Created with Inkscape (http://www.inkscape.org/) -->

<svg
   xmlns:dc="http://purl.org/dc/elements/1.1/"
   xmlns:cc="http://creativecommons.org/ns#"
   xmlns:rdf="http://www.w3.org/1999/02/22-rdf-syntax-ns#"
   xmlns:svg="http://www.w3.org/2000/svg"
   xmlns="http://www.w3.org/2000/svg"
   xmlns:sodipodi="http://sodipodi.sourceforge.net/DTD/sodipodi-0.dtd"
   xmlns:inkscape="http://www.inkscape.org/namespaces/inkscape"
   width="297mm"
   height="210mm"
   id="svg4471"
   version="1.1"
   inkscape:version="0.48.5 r10040"
   sodipodi:docname="forum.svg">
  <defs
     id="defs4473" />
  <sodipodi:namedview
     inkscape:document-units="mm"
     pagecolor="#ffffff"
     bordercolor="#666666"
     borderopacity="1.0"
     inkscape:pageopacity="0.0"
     inkscape:pageshadow="2"
     inkscape:zoom="0.39"
     inkscape:cx="490"
     inkscape:cy="541.96841"
     inkscape:current-layer="layer1"
     id="namedview4475"
     showgrid="true"
     showguides="true"
     inkscape:guide-bbox="true"
     inkscape:window-width="857"
     inkscape:window-height="645"
     inkscape:window-x="85"
     inkscape:window-y="6"
     inkscape:window-maximized="0">
    <inkscape:grid
       type="xygrid"
       id="grid4480" />
  </sodipodi:namedview>
  <metadata
     id="metadata4477">
    <rdf:RDF>
      <cc:Work
         rdf:about="">
        <dc:format>image/svg+xml</dc:format>
        <dc:type
           rdf:resource="http://purl.org/dc/dcmitype/StillImage" />
        <dc:title />
      </cc:Work>
    </rdf:RDF>
  </metadata>
  <g
     inkscape:label="Layer 1"
     inkscape:groupmode="layer"
     id="layer1">
    <g
       id="g5041"
       transform="matrix(0.70468962,0,0,0.78626521,182.27266,122.76021)">
      <path
         inkscape:connector-curvature="0"
         id="path5017"
         d="M 902.21267,626.89658 C 849.4413,618.88427 790.14996,597.18908 753.64669,572.53507 l -12.19962,-8.23953 -30.86344,1.03926 C 603.0505,568.9557 496.78964,534.4933 439.71696,477.48764 395.25731,433.0802 380.78278,372.73599 400.55785,314.23361 431.62945,222.31162 549.40147,154.41024 677.9259,154.31723 c 32.37615,-0.0234 51.52777,2.25804 82.0741,9.77725 98.04705,24.13502 172.23706,83.99884 194.41567,156.87375 5.15407,16.93534 4.77229,59.60671 -0.7144,79.8461 -8.58546,31.67035 -31.39392,69.48695 -55.07575,91.31612 l -8.50352,7.83826 2.18707,7.39165 c 6.90471,23.33611 19.81736,45.9361 34.81469,60.93342 17.13682,17.13684 30.76482,24.51667 73.32654,39.70779 4.6876,1.67309 8.5229,4.15232 8.5229,5.50938 0,3.9695 -14.7303,11.47815 -28.0564,14.30151 -16.67798,3.53354 -52.11511,3.12116 -78.70413,-0.91588 l 0,0 z M 564.04211,389.59999 c 19.99951,-10.10344 23.38922,-34.46735 6.97355,-50.12318 -12.68706,-12.09979 -31.54037,-11.21947 -43.51203,2.03173 -14.31123,15.84082 -9.25656,39.83353 10.25902,48.69591 9.77667,4.43978 16.60544,4.28271 26.27946,-0.60446 l 0,0 z m 133.78434,-1.70961 c 19.10177,-13.08874 17.17444,-43.33466 -3.3959,-53.2926 -10.00124,-4.84152 -18.27422,-4.76028 -28.13091,0.27623 -12.16097,6.21395 -15.28816,11.74621 -15.28816,27.04599 0,15.3372 3.68873,21.9324 15.68256,28.03942 9.46631,4.82003 22.32571,3.96541 31.13241,-2.06904 z m 112.05967,3.96001 c 7.21449,-2.00424 16.71537,-11.00365 19.54759,-18.51586 9.92778,-26.33259 -18.03809,-51.51144 -42.84798,-38.57781 -9.4148,4.90802 -14.11051,10.80056 -16.28302,20.43317 -3.26949,14.49648 2.91088,27.6122 16.21464,34.4101 8.67466,4.43253 13.75341,4.9216 23.36877,2.2504 l 0,0 z"
         style="fill:#000000;fill-opacity:1;stroke:none" />
      <path
         sodipodi:nodetypes="cccccccccccccccccccccc"
         inkscape:connector-curvature="0"
         id="path5021"
         d="m -37.650524,517.6381 c -23.302978,-3.32399 -67.637266,-11.7365 -64.869086,-41.13344 29.884864,-11.30248 64.047771,-16.68825 87.079629,-41.25071 C 2.218304,418.85471 16.020712,398.84671 27.394203,377.71313 -13.387848,342.07178 -44.391706,291.66964 -43.944766,236.15266 -46.100801,161.85482 5.2872773,96.851779 65.16247,58.085654 133.24898,12.689276 217.46398,-0.50989329 297.85627,6.0617603 390.69749,11.809544 480.14911,51.136649 540,124.09448 c 18.56236,15.46858 -14.21311,30.19515 -20,20 C 462.95699,73.114535 370.73794,26.030251 281.41498,22.229609 191.25695,17.449674 97.293832,48.797212 33.086471,113.282 c -33.36861329,32.58572 -54.92566,78.2901 -50.4891,125.57173 1.495646,51.72564 29.661631,98.8817 67.055739,133.18274 C 37.952003,419.72234 -12.354182,471.46641 -60,484.09448 c -21.001488,1.61104 -15.297028,8.31731 8.359017,13.31566 45.4680658,13.22692 94.342377,4.1614 139.485816,-6.72389 41.381357,-11.02175 81.586017,-27.87218 116.265617,-53.27018 37.89528,2.48546 118.26632,-9.5699 155.88955,-13.32159 49.13215,38.37439 -63.53932,32.65013 -84.37356,35.19212 -26.27228,5.70764 -56.32717,-4.89988 -79.30181,11.78432 -67.32459,34.85564 -144.52837,50.26896 -220.096168,47.78326 -4.63611,-0.28024 -9.265634,-0.67697 -13.878986,-1.21608 z"
         style="fill:#000000;fill-opacity:1;stroke:none" />
      <path
         inkscape:connector-curvature="0"
         id="path5025"
         d="m 242.85665,250.26714 c -8.67704,-3.16883 -13.62933,-7.57917 -16.72608,-14.8957 -8.51767,-20.1242 6.8929,-41.60902 28.36529,-39.5458 C 269.81362,197.29749 280,208.58809 280,224.09448 c 0,18.74409 -19.62281,32.57109 -37.14335,26.17266 l 0,0 z"
         style="fill:#000000;fill-opacity:1;stroke:none" />
      <path
         inkscape:connector-curvature="0"
         id="path5027"
         d="M 99.16989,250.29189 C 86.61103,245.81284 80,236.77826 80,224.09448 c 0,-15.23749 9.69866,-26.53992 24.17409,-28.17151 33.20562,-3.74275 45.00922,39.72945 14.54426,53.56594 -8.66742,3.93655 -10.54587,4.01371 -19.54846,0.80298 z"
         style="fill:#000000;fill-opacity:1;stroke:none" />
      <path
         style="fill:#000000;fill-opacity:1;stroke:none"
         d="m 382.85665,250.26714 c -8.67704,-3.16883 -13.62933,-7.57917 -16.72608,-14.8957 -8.51767,-20.1242 6.8929,-41.60902 28.36529,-39.5458 C 409.81362,197.29749 420,208.58809 420,224.09448 c 0,18.74409 -19.62281,32.57109 -37.14335,26.17266 l 0,0 z"
         id="path5029"
         inkscape:connector-curvature="0" />
    </g>
  </g>
</svg>
