<?xml version="1.0" encoding="UTF-8" standalone="no"?>
<!-- Created with Inkscape (http://www.inkscape.org/) -->

<svg
   xmlns:dc="http://purl.org/dc/elements/1.1/"
   xmlns:cc="http://creativecommons.org/ns#"
   xmlns:rdf="http://www.w3.org/1999/02/22-rdf-syntax-ns#"
   xmlns:svg="http://www.w3.org/2000/svg"
   xmlns="http://www.w3.org/2000/svg"
   xmlns:sodipodi="http://sodipodi.sourceforge.net/DTD/sodipodi-0.dtd"
   xmlns:inkscape="http://www.inkscape.org/namespaces/inkscape"
   width="297mm"
   height="210mm"
   id="svg3816"
   version="1.1"
   inkscape:version="0.48.5 r10040"
   sodipodi:docname="Neues Dokument 6">
  <defs
     id="defs3818" />
  <sodipodi:namedview
     inkscape:document-units="mm"
     pagecolor="#ffffff"
     bordercolor="#666666"
     borderopacity="1.0"
     inkscape:pageopacity="0.0"
     inkscape:pageshadow="2"
     inkscape:zoom="0.525169"
     inkscape:cx="488.83443"
     inkscape:cy="329.54899"
     inkscape:current-layer="layer1"
     id="namedview3820"
     showgrid="true"
     showguides="true"
     inkscape:guide-bbox="true"
     inkscape:window-width="1137"
     inkscape:window-height="715"
     inkscape:window-x="60"
     inkscape:window-y="0"
     inkscape:window-maximized="0">
    <inkscape:grid
       type="xygrid"
       id="grid3825" />
  </sodipodi:namedview>
  <metadata
     id="metadata3822">
    <rdf:RDF>
      <cc:Work
         rdf:about="">
        <dc:format>image/svg+xml</dc:format>
        <dc:type
           rdf:resource="http://purl.org/dc/dcmitype/StillImage" />
        <dc:title></dc:title>
      </cc:Work>
    </rdf:RDF>
  </metadata>
  <g
     inkscape:label="Layer 1"
     inkscape:groupmode="layer"
     id="layer1">
    <g
       id="g4300"
       transform="translate(4.882191,68.120002)">
      <g
         id="g4286">
        <g
           id="g3862"
           transform="matrix(0.66749648,0,0,0.64488221,-153.74824,55.091714)">
          <g
             transform="matrix(0.88217252,0,0,0.91823542,58.594616,-4.4567037)"
             id="g3833">
            <path
               sodipodi:type="arc"
               style="fill:#0f0700;fill-opacity:1;stroke:none"
               id="path3827"
               sodipodi:cx="560"
               sodipodi:cy="244.09448"
               sodipodi:rx="140"
               sodipodi:ry="140"
               d="m 700,244.09448 c 0,77.31987 -62.68014,140 -140,140 -77.31986,0 -140,-62.68013 -140,-140 0,-77.31986 62.68014,-140 140,-140 77.31986,0 140,62.68014 140,140 z"
               transform="translate(-63.610438,-60.5346)" />
            <path
               style="fill:#0f0700;fill-opacity:1;stroke:none"
               d="M 432.34784,662.73992 C 359.13586,655.6805 282.75947,638.55466 260,624.09448 c -17.04295,-10.82821 -28.13061,-28.60571 -35.27443,-56.55755 -4.51335,-17.6595 -4.57645,-59.07622 -0.1329,-87.22718 3.72285,-23.58517 16.40624,-79.5577 21.22495,-93.66697 10.43297,-30.54789 31.81658,-63.12244 54.18238,-82.5483 19.27013,-16.73711 29.7279,-17.93425 45.97205,-16.63307 20.88844,1.6732 35.99239,21.50861 54.95729,30.526 32.18262,15.30212 63.63892,37.06233 99.43241,39.81973 20.37542,1.56964 54.81078,-11.29892 59.63825,-13.71266 40,-20 39.21015,-27.93518 60,-40 12.89332,-7.48228 25.09288,-20 40,-20 14.90712,0 28.65768,10.32664 40,20 23.3862,19.94505 40.0576,47.40751 53.73744,74.9317 17.00472,34.21395 29.5283,87.80142 33.9123,109.48857 5.7434,28.41194 6.2108,68.78677 1.0139,87.59085 -8.36,30.24959 -22.158,46.57331 -47.3973,56.07336 -33.0916,12.45565 -98.0839,24.95368 -159.4428,30.66087 -35.7068,3.3212 -114.5424,3.26851 -149.4757,-0.1 l 0,6e-5 z"
               id="path3831"
               inkscape:connector-curvature="0"
               sodipodi:nodetypes="csssssaaasaaaassssccc" />
          </g>
        </g>
        <g
           transform="matrix(0.66749648,0,0,0.64488221,186.25176,-24.908286)"
           id="g4258">
          <g
             id="g4260"
             transform="matrix(0.88217252,0,0,0.91823542,58.594616,-4.4567037)">
            <path
               transform="translate(-63.610438,-60.5346)"
               d="m 700,244.09448 c 0,77.31987 -62.68014,140 -140,140 -77.31986,0 -140,-62.68013 -140,-140 0,-77.31986 62.68014,-140 140,-140 77.31986,0 140,62.68014 140,140 z"
               sodipodi:ry="140"
               sodipodi:rx="140"
               sodipodi:cy="244.09448"
               sodipodi:cx="560"
               id="path4262"
               style="fill:#0f0700;fill-opacity:1;stroke:none"
               sodipodi:type="arc" />
            <path
               sodipodi:nodetypes="csssssaaasaaaassssccc"
               inkscape:connector-curvature="0"
               id="path4264"
               d="M 432.34784,662.73992 C 359.13586,655.6805 282.75947,638.55466 260,624.09448 c -17.04295,-10.82821 -28.13061,-28.60571 -35.27443,-56.55755 -4.51335,-17.6595 -4.57645,-59.07622 -0.1329,-87.22718 3.72285,-23.58517 16.40624,-79.5577 21.22495,-93.66697 10.43297,-30.54789 31.81658,-63.12244 54.18238,-82.5483 19.27013,-16.73711 29.7279,-17.93425 45.97205,-16.63307 20.88844,1.6732 35.99239,21.50861 54.95729,30.526 32.18262,15.30212 63.63892,37.06233 99.43241,39.81973 20.37542,1.56964 54.81078,-11.29892 59.63825,-13.71266 40,-20 39.21015,-27.93518 60,-40 12.89332,-7.48228 25.09288,-20 40,-20 14.90712,0 28.65768,10.32664 40,20 23.3862,19.94505 40.0576,47.40751 53.73744,74.9317 17.00472,34.21395 29.5283,87.80142 33.9123,109.48857 5.7434,28.41194 6.2108,68.78677 1.0139,87.59085 -8.36,30.24959 -22.158,46.57331 -47.3973,56.07336 -33.0916,12.45565 -98.0839,24.95368 -159.4428,30.66087 -35.7068,3.3212 -114.5424,3.26851 -149.4757,-0.1 l 0,6e-5 z"
               style="fill:#0f0700;fill-opacity:1;stroke:none" />
          </g>
        </g>
        <g
           id="g4266"
           transform="matrix(0.66749648,0,0,0.64488221,538.28322,54.465482)">
          <g
             transform="matrix(0.88217252,0,0,0.91823542,58.594616,-4.4567037)"
             id="g4268">
            <path
               sodipodi:type="arc"
               style="fill:#0f0700;fill-opacity:1;stroke:none"
               id="path4270"
               sodipodi:cx="560"
               sodipodi:cy="244.09448"
               sodipodi:rx="140"
               sodipodi:ry="140"
               d="m 700,244.09448 c 0,77.31987 -62.68014,140 -140,140 -77.31986,0 -140,-62.68013 -140,-140 0,-77.31986 62.68014,-140 140,-140 77.31986,0 140,62.68014 140,140 z"
               transform="translate(-63.610438,-60.5346)" />
            <path
               style="fill:#0f0700;fill-opacity:1;stroke:none"
               d="M 432.34784,662.73992 C 359.13586,655.6805 282.75947,638.55466 260,624.09448 c -17.04295,-10.82821 -28.13061,-28.60571 -35.27443,-56.55755 -4.51335,-17.6595 -4.57645,-59.07622 -0.1329,-87.22718 3.72285,-23.58517 16.40624,-79.5577 21.22495,-93.66697 10.43297,-30.54789 31.81658,-63.12244 54.18238,-82.5483 19.27013,-16.73711 29.7279,-17.93425 45.97205,-16.63307 20.88844,1.6732 35.99239,21.50861 54.95729,30.526 32.18262,15.30212 63.63892,37.06233 99.43241,39.81973 20.37542,1.56964 54.81078,-11.29892 59.63825,-13.71266 40,-20 39.21015,-27.93518 60,-40 12.89332,-7.48228 25.09288,-20 40,-20 14.90712,0 28.65768,10.32664 40,20 23.3862,19.94505 40.0576,47.40751 53.73744,74.9317 17.00472,34.21395 29.5283,87.80142 33.9123,109.48857 5.7434,28.41194 6.2108,68.78677 1.0139,87.59085 -8.36,30.24959 -22.158,46.57331 -47.3973,56.07336 -33.0916,12.45565 -98.0839,24.95368 -159.4428,30.66087 -35.7068,3.3212 -114.5424,3.26851 -149.4757,-0.1 l 0,6e-5 z"
               id="path4272"
               inkscape:connector-curvature="0"
               sodipodi:nodetypes="csssssaaasaaaassssccc" />
          </g>
        </g>
      </g>
      <path
         sodipodi:open="true"
         sodipodi:end="3.1538898"
         sodipodi:start="0"
         transform="matrix(1.1226868,0,0,-1.5092437,-67.361173,1795.0807)"
         d="m 986.34915,762.62451 c 0,131.73652 -207.37033,238.53009 -463.17459,238.53009 -255.80426,0 -463.174591,-106.79357 -463.174591,-238.53009 0,-0.97775 0.01167,-1.95549 0.03502,-2.93316"
         sodipodi:ry="238.53006"
         sodipodi:rx="463.17459"
         sodipodi:cy="762.62451"
         sodipodi:cx="523.17456"
         id="path4274"
         style="fill:#ffffff;fill-opacity:1;stroke:none"
         sodipodi:type="arc" />
      <path
         sodipodi:open="true"
         sodipodi:end="3.1310819"
         sodipodi:start="0"
         transform="matrix(1,0,0,-1,-2.2225342,1401.415)"
         d="m 984.44504,780.70752 c 0,163.81486 -206.94407,296.61308 -462.22251,296.61308 -253.38321,0 -459.533768,-130.90582 -462.196967,-293.49551"
         sodipodi:ry="296.61304"
         sodipodi:rx="462.2225"
         sodipodi:cy="780.70752"
         sodipodi:cx="522.22253"
         id="path4276"
         style="fill:#0f0700;fill-opacity:1;stroke:none"
         sodipodi:type="arc" />
    </g>
  </g>
</svg>
