<?xml version="1.0" encoding="UTF-8" standalone="no"?>
<!-- Created with Inkscape (http://www.inkscape.org/) -->

<svg
   xmlns:dc="http://purl.org/dc/elements/1.1/"
   xmlns:cc="http://creativecommons.org/ns#"
   xmlns:rdf="http://www.w3.org/1999/02/22-rdf-syntax-ns#"
   xmlns:svg="http://www.w3.org/2000/svg"
   xmlns="http://www.w3.org/2000/svg"
   xmlns:sodipodi="http://sodipodi.sourceforge.net/DTD/sodipodi-0.dtd"
   xmlns:inkscape="http://www.inkscape.org/namespaces/inkscape"
   width="210mm"
   height="297mm"
   id="svg3913"
   version="1.1"
   inkscape:version="0.48.5 r10040"
   sodipodi:docname="Neues Dokument 15">
  <defs
     id="defs3" />
  <sodipodi:namedview
     inkscape:document-units="mm"
     id="base"
     pagecolor="#ffffff"
     bordercolor="#666666"
     borderopacity="1.0"
     inkscape:pageopacity="0.0"
     inkscape:pageshadow="2"
     inkscape:zoom="0.35"
     inkscape:cx="350"
     inkscape:cy="520"
     inkscape:current-layer="layer1"
     showgrid="false"
     inkscape:window-width="709"
     inkscape:window-height="606"
     inkscape:window-x="60"
     inkscape:window-y="60"
     inkscape:window-maximized="0" />
  <metadata
     id="metadata4">
    <rdf:RDF>
      <cc:Work
         rdf:about="">
        <dc:format>image/svg+xml</dc:format>
        <dc:type
           rdf:resource="http://purl.org/dc/dcmitype/StillImage" />
        <dc:title></dc:title>
      </cc:Work>
    </rdf:RDF>
  </metadata>
  <g
     inkscape:label="Layer 1"
     inkscape:groupmode="layer"
     id="layer1">
    <rect
       style="fill:#030303;fill-opacity:1;stroke:none"
       id="rect3919"
       width="162.85715"
       height="174.28572"
       x="291.42859"
       y="9.5050402"
       rx="28.723495"
       ry="38.59634" />
    <rect
       ry="43.025429"
       rx="31.747021"
       y="726.64789"
       x="425.71429"
       height="194.28572"
       width="180"
       id="rect3921"
       style="fill:#030303;fill-opacity:1;stroke:none" />
    <rect
       style="fill:#030303;fill-opacity:1;stroke:none"
       id="rect3923"
       width="142.85715"
       height="180"
       x="588.57147"
       y="160.93362"
       rx="25.196049"
       ry="39.861794" />
    <rect
       ry="27.207256"
       rx="21.16468"
       y="498.07648"
       x="628.57147"
       height="122.85715"
       width="119.99999"
       id="rect3925"
       style="fill:#030303;fill-opacity:1;stroke:none" />
    <rect
       style="fill:#030303;fill-opacity:1;stroke:none"
       id="rect3927"
       width="117.14285"
       height="120.00001"
       x="88.571426"
       y="135.21933"
       rx="20.660759"
       ry="26.57453" />
    <rect
       style="fill:#030303;fill-opacity:1;stroke:none"
       id="rect3929"
       width="165.71428"
       height="177.14287"
       x="5.7142859"
       y="338.07651"
       rx="29.227415"
       ry="39.229069" />
    <rect
       ry="34.167252"
       rx="25.699968"
       y="620.93365"
       x="134.28572"
       height="154.28572"
       width="145.71428"
       id="rect3931"
       style="fill:#030303;fill-opacity:1;stroke:none" />
    <rect
       style="fill:#030303;fill-opacity:1;stroke:none"
       id="rect3933"
       width="554.28571"
       height="60"
       x="-329.09375"
       y="592.47882"
       rx="2.8428082"
       ry="0"
       transform="matrix(0.68171644,-0.73161649,0.73161649,0.68171644,0,0)" />
    <rect
       transform="matrix(-0.2438406,-0.96981532,0.93959782,-0.34228049,0,0)"
       ry="0"
       rx="3.1758032"
       y="288.71661"
       x="-894.81299"
       height="37.151825"
       width="619.21246"
       id="rect3935"
       style="fill:#030303;fill-opacity:1;stroke:none" />
    <rect
       style="fill:#030303;fill-opacity:1;stroke:none"
       id="rect3937"
       width="619.21246"
       height="37.151825"
       x="-729.34442"
       y="-407.42902"
       rx="3.1758032"
       ry="0"
       transform="matrix(-0.97117957,-0.23834898,0.13721234,-0.99054166,0,0)" />
    <rect
       transform="matrix(-0.96618798,0.25783867,-0.44465119,-0.89570381,0,0)"
       ry="0"
       rx="2.4302773"
       y="-740.58539"
       x="-324.74313"
       height="12.242837"
       width="473.85114"
       id="rect3939"
       style="fill:#030303;fill-opacity:1;stroke:none" />
    <rect
       style="fill:#030303;fill-opacity:1;stroke:none"
       id="rect3941"
       width="473.85114"
       height="12.242837"
       x="285.94623"
       y="-667.58069"
       rx="2.4302773"
       ry="0"
       transform="matrix(-0.18851034,0.98207121,-0.99994639,0.01035497,0,0)" />
    <rect
       transform="matrix(0.57146333,0.82062761,-0.65647766,0.75434546,0,0)"
       ry="0"
       rx="2.583281"
       y="-225.23482"
       x="394.29855"
       height="12.948084"
       width="503.68353"
       id="rect3943"
       style="fill:#030303;fill-opacity:1;stroke:none" />
    <rect
       style="fill:#030303;fill-opacity:1;stroke:none"
       id="rect3945"
       width="503.68353"
       height="12.948084"
       x="-410.2645"
       y="382.55676"
       rx="2.583281"
       ry="0"
       transform="matrix(0.59830807,-0.80126616,0.92298914,0.384826,0,0)" />
    <rect
       transform="matrix(-0.14428273,-0.9895365,0.92446869,-0.38125797,0,0)"
       ry="0"
       rx="2.583281"
       y="129.89995"
       x="-754.31238"
       height="12.948084"
       width="503.68353"
       id="rect3947"
       style="fill:#030303;fill-opacity:1;stroke:none" />
    <rect
       style="fill:#030303;fill-opacity:1;stroke:none"
       id="rect3949"
       width="547.57544"
       height="12.390636"
       x="-826.78601"
       y="-121.51964"
       rx="2.808393"
       ry="0"
       transform="matrix(-0.84631507,-0.53268264,0.60212367,-0.79840283,0,0)" />
    <rect
       style="fill:#030303;fill-opacity:1;stroke:none"
       id="rect3951"
       width="503.68353"
       height="12.948084"
       x="-649.07318"
       y="391.67441"
       rx="2.583281"
       ry="0"
       transform="matrix(0.27183636,-0.96234349,0.99958149,0.02892811,0,0)" />
  </g>
</svg>
