<?xml version="1.0" encoding="UTF-8" standalone="no"?>
<!-- Created with Inkscape (http://www.inkscape.org/) -->

<svg
   xmlns:dc="http://purl.org/dc/elements/1.1/"
   xmlns:cc="http://creativecommons.org/ns#"
   xmlns:rdf="http://www.w3.org/1999/02/22-rdf-syntax-ns#"
   xmlns:svg="http://www.w3.org/2000/svg"
   xmlns="http://www.w3.org/2000/svg"
   xmlns:sodipodi="http://sodipodi.sourceforge.net/DTD/sodipodi-0.dtd"
   xmlns:inkscape="http://www.inkscape.org/namespaces/inkscape"
   width="297mm"
   height="210mm"
   id="svg3013"
   version="1.1"
   inkscape:version="0.48.5 r10040"
   sodipodi:docname="Neues Dokument 3">
  <defs
     id="defs3015">
    <inkscape:path-effect
       effect="skeletal"
       id="path-effect3028"
       is_visible="true"
       pattern="M 0,5 C 0,2.24 2.24,0 5,0 7.76,0 10,2.24 10,5 10,7.76 7.76,10 5,10 2.24,10 0,7.76 0,5 z"
       copytype="single_stretched"
       prop_scale="1"
       scale_y_rel="false"
       spacing="0"
       normal_offset="0"
       tang_offset="0"
       prop_units="false"
       vertical_pattern="false"
       fuse_tolerance="0" />
  </defs>
  <sodipodi:namedview
     inkscape:document-units="mm"
     pagecolor="#ffffff"
     bordercolor="#666666"
     borderopacity="1.0"
     inkscape:pageopacity="0.0"
     inkscape:pageshadow="2"
     inkscape:zoom="0.39"
     inkscape:cx="647.48827"
     inkscape:cy="332.94118"
     inkscape:current-layer="layer1"
     id="namedview3017"
     showgrid="true"
     inkscape:window-width="709"
     inkscape:window-height="680"
     inkscape:window-x="20"
     inkscape:window-y="20"
     inkscape:window-maximized="0">
    <inkscape:grid
       type="xygrid"
       id="grid3022" />
  </sodipodi:namedview>
  <metadata
     id="metadata3019">
    <rdf:RDF>
      <cc:Work
         rdf:about="">
        <dc:format>image/svg+xml</dc:format>
        <dc:type
           rdf:resource="http://purl.org/dc/dcmitype/StillImage" />
        <dc:title></dc:title>
      </cc:Work>
    </rdf:RDF>
  </metadata>
  <g
     inkscape:label="Layer 1"
     inkscape:groupmode="layer"
     id="layer1">
    <g
       id="g3032"
       transform="matrix(1.0452108,0,0,1.0559201,-7.4864277,153.18994)">
      <rect
         transform="matrix(0.47765326,0.87854844,-0.84475361,0.53515543,0,0)"
         rx="12.130001"
         y="-176.49597"
         x="280.44177"
         height="144.08865"
         width="290.31494"
         id="rect3024"
         style="fill:#000000;fill-opacity:1;stroke:none" />
      <path
         sodipodi:nodetypes="cssssassscsssaassaassc"
         inkscape:connector-curvature="0"
         id="path3030"
         d="M 372.55412,395.38202 C 367.21413,384.95324 345.66747,345.45187 324.67265,307.6012 303.67783,269.75052 279.63498,224.40148 280,224.09448 c 0.36502,-0.307 25.30923,5.40432 46.67567,-4.57712 C 365.50956,201.37592 370.94258,203.29358 380,184.09448 399.42797,142.91284 419.07776,130.38306 447.26521,114.5016 486.7338,92.264091 502.74153,84.094482 580,84.094482 c 47.78326,0 0,0 60,0 13.33333,0 13.33333,39.999998 0,39.999998 l -58.79052,9.34795 -38.26979,9.47041 c -40.94691,10.1329 18.23947,70.15653 57.40469,56.82248 40.00511,-13.61999 117.53204,-50.04712 153.07916,-85.23372 19.1349,-18.940826 15.34665,-26.265889 28.70235,-28.411239 7.03907,-1.130698 13.8351,4.747481 19.13489,9.470413 3.63628,3.240488 10.49907,8.139356 7.9024,12.244206 -46.17219,72.98952 -17.46984,16.16703 -94.00943,129.812 0,0 -44.60278,59.14411 -76.53958,75.76331 -17.5863,9.15151 -38.79126,9.38407 -58.61417,10.71419 -53.11602,3.5641 -158.35409,-8.68033 -159.53558,-7.46545 -1.94814,2.00319 -31.38294,76.35504 -36.19233,91.42118 -1.92017,6.01522 -2.43778,5.45563 -11.71797,-12.66819 z"
         style="fill:#000000;fill-opacity:1;stroke:none" />
    </g>
    <path
       sodipodi:type="arc"
       style="fill:#000000;fill-opacity:1;stroke:none"
       id="path3038"
       sodipodi:cx="640"
       sodipodi:cy="144.09448"
       sodipodi:rx="40"
       sodipodi:ry="40"
       d="m 680,144.09448 a 40,40 0 1 1 -80,0 40,40 0 1 1 80,0 z"
       transform="translate(40,0)" />
    <path
       sodipodi:type="arc"
       style="fill:#000000;fill-opacity:1;stroke:none"
       id="path3040"
       sodipodi:cx="760"
       sodipodi:cy="264.09448"
       sodipodi:rx="40"
       sodipodi:ry="40"
       d="m 800,264.09448 a 40,40 0 1 1 -80,0 40,40 0 1 1 80,0 z"
       transform="translate(-40,-40)" />
    <path
       sodipodi:type="arc"
       style="fill:#000000;fill-opacity:1;stroke:none"
       id="path3042"
       sodipodi:cx="480"
       sodipodi:cy="184.09448"
       sodipodi:rx="40"
       sodipodi:ry="40"
       d="m 520,184.09448 a 40,40 0 0 1 -79.97133,1.51407 L 480,184.09448 z"
       sodipodi:start="0"
       sodipodi:end="3.103732"
       transform="matrix(-0.99994562,-0.01042812,0.01042812,-0.99994562,1078.0692,414.28161)"
       inkscape:transform-center-x="-39.991387"
       inkscape:transform-center-y="-20.000023" />
  </g>
</svg>
