<?xml version="1.0" encoding="UTF-8" standalone="no"?>
<!-- Created with Inkscape (http://www.inkscape.org/) -->

<svg
   xmlns:dc="http://purl.org/dc/elements/1.1/"
   xmlns:cc="http://creativecommons.org/ns#"
   xmlns:rdf="http://www.w3.org/1999/02/22-rdf-syntax-ns#"
   xmlns:svg="http://www.w3.org/2000/svg"
   xmlns="http://www.w3.org/2000/svg"
   xmlns:sodipodi="http://sodipodi.sourceforge.net/DTD/sodipodi-0.dtd"
   xmlns:inkscape="http://www.inkscape.org/namespaces/inkscape"
   width="297mm"
   height="210mm"
   id="svg3300"
   version="1.1"
   inkscape:version="0.48.5 r10040"
   sodipodi:docname="Neues Dokument 14">
  <defs
     id="defs3302">
    <inkscape:path-effect
       effect="spiro"
       id="path-effect4170"
       is_visible="true" />
    <inkscape:path-effect
       effect="spiro"
       id="path-effect4166"
       is_visible="true" />
    <inkscape:path-effect
       effect="spiro"
       id="path-effect4162"
       is_visible="true" />
    <inkscape:path-effect
       effect="spiro"
       id="path-effect4154"
       is_visible="true" />
    <inkscape:path-effect
       effect="spiro"
       id="path-effect4150"
       is_visible="true" />
    <inkscape:path-effect
       effect="spiro"
       id="path-effect4141"
       is_visible="true" />
    <inkscape:path-effect
       effect="spiro"
       id="path-effect4137"
       is_visible="true" />
    <inkscape:path-effect
       effect="spiro"
       id="path-effect4133"
       is_visible="true" />
    <inkscape:path-effect
       effect="spiro"
       id="path-effect4129"
       is_visible="true" />
    <inkscape:path-effect
       effect="spiro"
       id="path-effect4123"
       is_visible="true" />
    <inkscape:path-effect
       effect="spiro"
       id="path-effect4119"
       is_visible="true" />
    <inkscape:path-effect
       effect="spiro"
       id="path-effect4115"
       is_visible="true" />
    <inkscape:path-effect
       effect="spiro"
       id="path-effect4111"
       is_visible="true" />
    <inkscape:path-effect
       effect="spiro"
       id="path-effect4107"
       is_visible="true" />
    <inkscape:path-effect
       effect="spiro"
       id="path-effect4103"
       is_visible="true" />
    <inkscape:path-effect
       effect="spiro"
       id="path-effect4095"
       is_visible="true" />
    <inkscape:path-effect
       effect="spiro"
       id="path-effect4091"
       is_visible="true" />
    <inkscape:path-effect
       effect="spiro"
       id="path-effect4085"
       is_visible="true" />
  </defs>
  <sodipodi:namedview
     inkscape:document-units="mm"
     pagecolor="#ffffff"
     bordercolor="#666666"
     borderopacity="1.0"
     inkscape:pageopacity="0.0"
     inkscape:pageshadow="2"
     inkscape:zoom="0.5573222"
     inkscape:cx="582.13228"
     inkscape:cy="380"
     inkscape:current-layer="layer1"
     id="namedview3304"
     showgrid="true"
     showguides="true"
     inkscape:guide-bbox="true"
     inkscape:window-width="880"
     inkscape:window-height="609"
     inkscape:window-x="174"
     inkscape:window-y="92"
     inkscape:window-maximized="0">
    <inkscape:grid
       type="xygrid"
       id="grid3309" />
  </sodipodi:namedview>
  <metadata
     id="metadata3306">
    <rdf:RDF>
      <cc:Work
         rdf:about="">
        <dc:format>image/svg+xml</dc:format>
        <dc:type
           rdf:resource="http://purl.org/dc/dcmitype/StillImage" />
        <dc:title></dc:title>
      </cc:Work>
    </rdf:RDF>
  </metadata>
  <g
     inkscape:label="Layer 1"
     inkscape:groupmode="layer"
     id="layer1">
    <g
       id="g4188"
       transform="translate(-17.697,-44.910428)">
      <path
         inkscape:connector-curvature="0"
         id="path4097"
         d="m 680,274.31323 -299.96875,2.9375 c 0.002,0.0756 -0.002,0.1431 0,0.21875 1.25661,42.98139 52.54992,78.40157 119.96875,86.625 l 0,50.21875 60,-20 0,-30.21875 c 69.522,-8.45906 121.28883,-45.6978 120,-89.78125 z"
         style="fill:#000000;fill-opacity:1;stroke:none" />
      <path
         inkscape:connector-curvature="0"
         id="path4125"
         d="m 557.78125,495.96948 c -1.23358,0.46033 -14.16253,4.76168 -28.71875,9.5625 l -26.46875,8.71875 0,68.6875 0,41.96875 c -54.67517,6.76207 -95,30.17936 -95,58.03125 l 127.5,0 127.5,0 c 0,-29.1237 -44.10834,-53.39029 -102.59375,-58.84375 l 0,-50.71875 c 0,-61.84519 -0.44595,-78.06778 -2.21875,-77.40625 z"
         style="fill:#000000;fill-opacity:1;stroke:none" />
      <path
         sodipodi:nodetypes="aaaasaaaaassssssaaaaasaaaaaaassaacsssc"
         inkscape:connector-curvature="0"
         id="path4179"
         d="m 400,624.09448 c -14.68486,-2.56457 -29.39367,-9.52489 -40,-20 -9.98167,-9.85818 -19.00699,-23.38065 -19.28924,-37.40697 -0.40268,-20.01097 11.77199,-39.72653 25.35018,-54.43142 29.01505,-31.42268 48.11778,-39.39161 111.63606,-63.25118 21.85475,-8.20937 81.34143,-23.1687 120,-40 28.65486,-12.47585 56.18151,-27.75189 82.303,-44.91043 14.75417,-9.69163 30.20868,-19.22595 41.74279,-32.58924 16.8816,-19.55882 40.0459,-41.63603 38.25721,-67.41076 -2.02122,-29.12538 -26.75259,-57.40637 -53.338,-69.47242 -17.67133,-8.02031 -50.7743,-1.0092 -58.0998,3.71814 -12.6077,8.13613 -25.2287,12.93326 -51.9901,19.76091 -33.9845,8.67047 -43.49325,9.0469 -56.90447,2.2527 -12.81196,-6.49063 -17.81797,-14.02091 -17.81797,-26.80266 0,-24.48816 20.4129,-41.91193 62.80034,-53.60424 21.2009,-5.84817 48.9558,-7.1495 66.3888,-3.11276 6.4147,1.48535 25.86281,1.7566 38.5774,4.11917 22.17034,4.1196 45.58011,6.62778 65.3572,17.46114 19.50359,10.68354 38.23142,25.70559 49.2123,45.04333 11.01564,19.39897 16.40725,43.42749 13.5113,65.54712 -3.87032,29.56196 -22.56731,55.81343 -40,80 -11.0254,15.29693 -20,20 -40,40 -3.00518,3.00518 -63.52349,39.92711 -97.697,55.08957 -19.27023,8.55002 -40.29434,12.50792 -60,20 -47.45752,18.04332 -97.95752,31.53585 -140,60 -15.61419,10.57132 -35.40846,21.71139 -40,40 -0.64398,2.56506 0.90149,5.34704 2.29493,7.59484 1.46934,2.37024 3.54956,4.59345 6.09642,5.72944 10.13216,4.51927 22.20468,4.54441 33.16364,2.81649 C 455.284,578.07057 480,550.19586 480,564.09448 l 0,40 c 0,10.5942 -18.41088,10.92809 -28.57639,13.91128 -16.56249,4.86045 -34.42002,9.05823 -51.42361,6.08872 z M 565.40723,180.07062 c 9.52867,-2.85486 19.24277,-12.08678 19.24277,-18.28764 0,-10.63856 -18.48626,-9.13811 -30.71292,2.49285 -7.46888,7.10496 -8.89258,13.06095 -3.82729,16.01121 4.12819,2.40446 6.66975,2.3685 15.29744,-0.21642 z"
         style="fill:#0a0000;fill-opacity:1;stroke:none" />
      <path
         inkscape:transform-center-y="24.245131"
         sodipodi:nodetypes="saasccs"
         inkscape:connector-curvature="0"
         id="path4181"
         d="m 579.81769,523.47112 c 0.73047,-8.79507 17.23138,-3.90974 25.65526,-6.54126 11.72,-3.66119 24.28633,-6.06113 34.52705,-12.83538 16.52092,-10.92861 31.00218,-29.06917 40.84789,-43.16047 9.97559,-14.27718 14.26722,-17.20891 19.6511,-13.42413 14.66064,55.32779 -122.94447,157.0261 -122.80199,101.49503 z"
         style="fill:#0a0000;fill-opacity:1;stroke:none" />
      <path
         inkscape:connector-curvature="0"
         id="path4185"
         d="m 450.72871,252.89113 c 0.80766,-1.36161 5.0721,-6.73435 9.47655,-11.93942 4.40445,-5.20508 7.68316,-9.78871 7.28602,-10.18584 -0.39713,-0.39713 -6.64992,-2.21429 -13.89509,-4.03814 l -13.17304,-3.31608 28.60746,-11.16963 c 15.7341,-6.1433 29.13889,-11.16963 29.78843,-11.16963 0.64953,0 1.18096,1.35994 1.18096,3.02209 0,5.45827 7.0653,17.5406 12.43286,21.26136 l 5.26414,3.64907 -32.33904,12.49958 c -17.78647,6.87477 -33.18474,12.80619 -34.21838,13.18093 -1.14836,0.41634 -1.30817,-0.28156 -0.41087,-1.79429 l 0,0 z"
         style="fill:#0a0000;fill-opacity:1;stroke:none" />
    </g>
  </g>
</svg>
